<?xml version="1.0" standalone="no"?>
<svg xmlns:xlink="http://www.w3.org/1999/xlink" id="wave" style="transform:rotate(180deg); transition: 0.3s" viewBox="0 0 1440 490" version="1.1" xmlns="http://www.w3.org/2000/svg"><defs><linearGradient id="sw-gradient-0" x1="0" x2="0" y1="1" y2="0"><stop stop-color="rgba(23.195, 22.445, 22.204, 1)" offset="0%"/><stop stop-color="rgba(0, 0, 0, 1)" offset="100%"/></linearGradient></defs><path style="transform:translate(0, 0px); opacity:1" fill="url(#sw-gradient-0)" d="M0,392L40,351.2C80,310,160,229,240,171.5C320,114,400,82,480,65.3C560,49,640,49,720,106.2C800,163,880,278,960,310.3C1040,343,1120,294,1200,269.5C1280,245,1360,245,1440,236.8C1520,229,1600,212,1680,196C1760,180,1840,163,1920,171.5C2000,180,2080,212,2160,245C2240,278,2320,310,2400,285.8C2480,261,2560,180,2640,179.7C2720,180,2800,261,2880,253.2C2960,245,3040,147,3120,155.2C3200,163,3280,278,3360,334.8C3440,392,3520,392,3600,375.7C3680,359,3760,327,3840,261.3C3920,196,4000,98,4080,73.5C4160,49,4240,98,4320,147C4400,196,4480,245,4560,294C4640,343,4720,392,4800,343C4880,294,4960,147,5040,122.5C5120,98,5200,196,5280,253.2C5360,310,5440,327,5520,318.5C5600,310,5680,278,5720,261.3L5760,245L5760,490L5720,490C5680,490,5600,490,5520,490C5440,490,5360,490,5280,490C5200,490,5120,490,5040,490C4960,490,4880,490,4800,490C4720,490,4640,490,4560,490C4480,490,4400,490,4320,490C4240,490,4160,490,4080,490C4000,490,3920,490,3840,490C3760,490,3680,490,3600,490C3520,490,3440,490,3360,490C3280,490,3200,490,3120,490C3040,490,2960,490,2880,490C2800,490,2720,490,2640,490C2560,490,2480,490,2400,490C2320,490,2240,490,2160,490C2080,490,2000,490,1920,490C1840,490,1760,490,1680,490C1600,490,1520,490,1440,490C1360,490,1280,490,1200,490C1120,490,1040,490,960,490C880,490,800,490,720,490C640,490,560,490,480,490C400,490,320,490,240,490C160,490,80,490,40,490L0,490Z"/></svg>