<?xml version="1.0" encoding="utf-8"?><svg xmlns="http://www.w3.org/2000/svg" xmlns:xlink="http://www.w3.org/1999/xlink" width="1366" height="600" preserveAspectRatio="xMidYMid" viewBox="0 0 1366 600" style="z-index:1;margin-right:-2px;display:block;background-repeat-y:initial;background-repeat-x:initial;background-color:rgb(241, 242, 243);animation-play-state:paused" ><g transform="translate(683,300) scale(1,1) translate(-683,-300)" style="transform:matrix(1, 0, 0, 1, 0, 0);animation-play-state:paused" ><linearGradient id="lg-0.4372381062776378" x1="0" x2="1" y1="0" y2="0" style="animation-play-state:paused" ><stop stop-color="#0a0a0a" offset="0" style="animation-play-state:paused" ></stop>

  
<stop stop-color="#28292f" offset="1" style="animation-play-state:paused" ></stop></linearGradient>
<path d="M 0 0 L 0 587.266 Q 136.6 493.421 273.2 476.461 T 546.4 393.246 T 819.6 411.959 T 1092.8 350.983 T 1366 210.159 L 1366 0 Z" fill="url(#lg-0.4372381062776378)" opacity="0.4" style="opacity:0.4;animation-play-state:paused" ></path>
<path d="M 0 0 L 0 579.903 Q 136.6 517.126 273.2 485.536 T 546.4 433.54 T 819.6 398.322 T 1092.8 367.483 T 1366 268.422 L 1366 0 Z" fill="url(#lg-0.4372381062776378)" opacity="0.4" style="opacity:0.4;animation-play-state:paused" ></path>
<path d="M 0 0 L 0 565.843 Q 136.6 522.909 273.2 488.849 T 546.4 441.688 T 819.6 375.316 T 1092.8 353.317 T 1366 280.851 L 1366 0 Z" fill="url(#lg-0.4372381062776378)" opacity="0.4" style="opacity:0.4;animation-play-state:paused" ></path>
<path d="M 0 0 L 0 526.166 Q 136.6 545.178 273.2 511.939 T 546.4 413.782 T 819.6 356.639 T 1092.8 288.035 T 1366 301.806 L 1366 0 Z" fill="url(#lg-0.4372381062776378)" opacity="0.4" style="opacity:0.4;animation-play-state:paused" ></path>
<path d="M 0 0 L 0 549.004 Q 136.6 554.049 273.2 525.812 T 546.4 439.952 T 819.6 345.918 T 1092.8 338.728 T 1366 288.058 L 1366 0 Z" fill="url(#lg-0.4372381062776378)" opacity="0.4" style="opacity:0.4;animation-play-state:paused" ></path></g></svg>